<svg width="308" height="63" viewBox="0 0 308 63" fill="none" xmlns="http://www.w3.org/2000/svg"><g clip-path="url(#prefix__clip0_5259_27412)"><path d="M.143 42.648l8.58-6.53c4.558 5.91 9.402 8.635 14.793 8.635 5.362 0 10.068-2.692 14.421-8.557l8.703 6.373c-6.281 8.457-14.087 12.925-23.124 12.925-9.01 0-16.89-4.44-23.373-12.846z" fill="url(#prefix__paint0_linear_5259_27412)"></path><path d="M23.49 14.264L8.218 27.338l-7.06-8.135L23.522.057 45.71 19.22l-7.092 8.105-15.128-13.06z" fill="url(#prefix__paint1_linear_5259_27412)"></path><path d="M79.545 47.427c-5.214 0-9.56-1.679-13.085-5.037-3.524-3.405-5.26-7.77-5.26-13.096 0-5.37 1.783-9.785 5.307-13.24 3.575-3.502 7.921-5.227 13.089-5.227 6.374 0 12.021 2.731 15.308 7.002l-5.752 5.997c-2.753-2.928-5.747-4.414-8.98-4.414-2.753 0-5.023.91-6.908 2.782-1.834 1.872-2.75 4.225-2.75 7.053 0 2.735.916 5.037 2.75 6.91 1.885 1.822 4.155 2.732 6.858 2.732 3.524 0 6.616-1.536 9.174-4.558l5.99 5.71c-1.644 2.16-3.863 3.935-6.617 5.324-2.753 1.393-5.794 2.062-9.127 2.062h.003zm25.874-37.13V46.9h-8.497V10.297h8.497zm8.054 7.769c-2.847 0-4.922-2.062-4.922-4.89 0-2.736 2.173-4.798 4.922-4.798 2.753 0 4.879 2.062 4.879 4.797 0 2.829-2.126 4.894-4.879 4.894v-.003zm4.299 2.352v26.483h-8.548V20.418h8.548zm16.361 27.06c-4.202 0-7.582-1.297-10.235-3.889-2.609-2.588-3.913-5.9-3.913-9.978 0-4.078 1.304-7.386 3.96-9.978 2.656-2.592 6.083-3.884 10.332-3.884 5.553 0 10.432 2.685 12.699 7.722l-6.807 3.552c-1.352-2.256-3.236-3.409-5.698-3.409-1.787 0-3.236.577-4.396 1.73a5.966 5.966 0 00-1.69 4.267c0 3.502 2.558 6.094 5.989 6.094 2.461 0 4.732-1.343 5.697-3.405l6.811 4.028c-2.321 4.414-7.099 7.15-12.749 7.15zm42.389-.577h-10.144l-7.874-10.508-1.254 1.153v9.355h-8.494V10.297h8.497v17.797l8.015-7.676h10.382L164.208 31.07l12.314 15.832zm.569-13.77V11.447h9.078v21.542c0 3.981 2.317 5.9 5.65 5.9 3.283 0 5.6-2.015 5.6-5.9V11.446h9.128v21.686c0 10.457-7.294 14.392-14.728 14.392-7.387 0-14.728-3.935-14.728-14.392zm49.629-13.383c3.816 0 6.908 1.343 9.369 4.028 2.462 2.639 3.669 5.95 3.669 9.835 0 3.888-1.254 7.197-3.716 9.932-2.464 2.685-5.553 4.031-9.272 4.031-2.947 0-5.506-.96-7.582-2.878v13.096h-8.547V20.418h8.403v2.449c2.076-2.066 4.634-3.119 7.676-3.119zm4.346 13.96c0-3.455-2.508-6.094-5.986-6.094-3.477 0-6.036 2.639-6.036 6.094 0 1.68.577 3.118 1.69 4.318 1.157 1.2 2.606 1.775 4.346 1.775 1.737 0 3.186-.576 4.296-1.775a6.154 6.154 0 001.693-4.318h-.003z" fill="#fff"></path></g><path d="M256.24 48.48c6.4 0 10.84-3.64 10.84-8.84 0-3.44-2-6.44-5.8-7.28v-.16c2.64-.96 4.96-3.32 4.96-6.6 0-4.36-4.16-7.68-9.52-7.68-3.72 0-7.28 1.48-9.64 3.64l3.12 4.76c2.36-1.6 3.92-2.2 5.68-2.2 2.04 0 3.68 1.08 3.68 2.96 0 1.76-1.48 3.04-4.08 3.04h-3.08v5.92h3.8c2.44 0 4 1.28 4 3.12 0 1.88-1.56 3.24-4.4 3.24-1.72 0-3.96-.52-6.68-2.12l-2.72 5.28c3 1.84 6.2 2.92 9.84 2.92zm17.153.16c1.88 0 3.44-1.48 3.44-3.52 0-1.96-1.56-3.48-3.44-3.48-2 0-3.56 1.52-3.56 3.48 0 2.04 1.56 3.52 3.56 3.52zm17.907-.16c8.12 0 12.16-6.72 12.16-15.28 0-8.56-4.04-15.28-12.16-15.28-8.04 0-12.08 6.72-12.08 15.28 0 8.56 4.04 15.28 12.08 15.28zm.04-6.2c-3.88 0-5.56-3.96-5.56-9.08 0-5.04 1.72-9.08 5.56-9.08 3.8 0 5.56 4.04 5.56 9.08 0 5.12-1.68 9.08-5.56 9.08z" fill="url(#prefix__paint2_linear_5259_27412)"></path><defs><linearGradient id="prefix__paint0_linear_5259_27412" x1=".143" y1="49.295" x2="46.64" y2="49.295" gradientUnits="userSpaceOnUse"><stop stop-color="#8930FD"></stop><stop offset="1" stop-color="#49CCF9"></stop></linearGradient><linearGradient id="prefix__paint1_linear_5259_27412" x1="1.158" y1="18.611" x2="45.71" y2="18.611" gradientUnits="userSpaceOnUse"><stop stop-color="#FF02F0"></stop><stop offset="1" stop-color="#FFC800"></stop></linearGradient><linearGradient id="prefix__paint2_linear_5259_27412" x1="208.573" y1="96" x2="311.763" y2="4.232" gradientUnits="userSpaceOnUse"><stop stop-color="#45C4F9"></stop><stop offset=".322" stop-color="#8920FE"></stop><stop offset=".682" stop-color="#FF0BE5"></stop><stop offset=".951" stop-color="#FFC800"></stop></linearGradient><clipPath id="prefix__clip0_5259_27412"><path fill="#fff" d="M0 0h240v58H0z"></path></clipPath></defs></svg>
